# xmcd
#
# Track frame offsets: 
#        150
#        24509
#        51813
#        69173
#        88044
#        113001
#        134193
#        157326
#        175536
#        200303
#        216777
#        232684
#        246169
#        262444
#        285418
#        310956
#        333963
#
# Disc length: 4766 seconds
#
# Revision: 0
# Processed by: cddbd v1.5.2PL0 Copyright (c) Steve Scherf et al.
# Submitted via: ExactAudioCopy v1.3
#
DISCID=f3129c11
DTITLE=Various Artist - Akella Presents - vol. 200 - Various Styles O
DTITLE=f Blues  CD1
DYEAR=2019
DGENRE=Blues
TTITLE0=Lol Goodman Band - Work To Live
TTITLE1=Sidetrackers - Stormy Monday
TTITLE2=Melissa Etheridge - This Human Chain
TTITLE3=Linsey Alexander - Snowing in Chicago
TTITLE4=Vasti Jackson - Say Goodbye
TTITLE5=Juniper Inc. - Shadow Blues
TTITLE6=Andreas Diehlmann Band - Hard Times
TTITLE7=Jools Holland and Marc Almond - I'll Take Care Of You
TTITLE8=Rattlebone - I'll Be Loving You
TTITLE9=Adi Barar Band - Cars Hiss by My Window
TTITLE10=Harpdog Brown - Cheatin' 'n' Lyin'
TTITLE11=Coyote Kings - Shakin' It
TTITLE12=Danny Worsnop - Ain't Feeling Sorry
TTITLE13=RJ Mischo - Wait On Me
TTITLE14=Mick Kolassa - Left Too Soon
TTITLE15=Roy Roberts - Let's Straighten It Out
TTITLE16=B.B. King - Ghetto Woman
EXTD=
EXTT0=
EXTT1=
EXTT2=
EXTT3=
EXTT4=
EXTT5=
EXTT6=
EXTT7=
EXTT8=
EXTT9=
EXTT10=
EXTT11=
EXTT12=
EXTT13=
EXTT14=
EXTT15=
EXTT16=
PLAYORDER=
